#!OML:ASF F:\VICON\USERDATA\INSTALL\rory3\rory3.ASF
:FULLY-SPECIFIED
:DEGREES
333
root 7.11462 18.0038 13.6065 43.4723 -95.8128 -44.1755
lowerback 10.9693 0.276658 -2.70887
upperback 0.630506 -0.0271313 -0.377803
thorax -5.49662 0.0331482 1.13749
lowerneck -20.994 -5.12993 -11.4131
upperneck 27.7183 -6.4058 8.31347
head 13.5318 -3.05326 4.04555
rclavicle -3.35449e-015 -5.56597e-015
rhumerus -42.8824 -20.9611 -67.9969
rradius 27.4184
rwrist 4.89157
rhand -16.3039 7.51328
rfingers 7.12502
rthumb 9.90696 -22.2336
lclavicle -3.35449e-015 -5.56597e-015
lhumerus -29.8403 6.98612 76.8621
lradius 37.3793
lwrist -3.68727
lhand -18.8021 26.0369
lfingers 7.12502
lthumb 7.49613 55.8841
rfemur -5.12018 5.01976 15.965
rtibia 57.2604
rfoot 21.7967 23.2322
rtoes 13.6384
lfemur -4.71995 0.906649 -24.151
ltibia 11.967
lfoot -5.47729 -10.1723
ltoes -5.74981
334
root 7.01171 18.0028 13.6266 42.4283 -95.9032 -43.3446
lowerback 11.2298 0.152418 -2.89109
upperback 0.650037 -0.21817 -0.261197
thorax -5.61341 -0.0539564 1.393
lowerneck -21.0272 -5.00299 -11.5668
upperneck 27.6502 -6.11942 8.22596
head 13.4767 -2.95332 4.08771
rclavicle -1.08338e-014 -6.75868e-015
rhumerus -43.134 -20.3789 -68.2636
rradius 28.0531
rwrist 4.54141
rhand -16.3929 7.54626
rfingers 7.12502
rthumb 9.82114 -22.2047
lclavicle -1.08338e-014 -6.75868e-015
lhumerus -29.7834 7.51179 76.9745
lradius 37.2049
lwrist -4.1039
lhand -18.6255 25.8873
lfingers 7.12502
lthumb 7.6666 55.7284
rfemur -6.05682 4.93958 15.827
rtibia 58.9768
rfoot 19.8021 22.4967
rtoes 11.7095
lfemur -4.00546 1.19042 -24.2282
ltibia 11.7791
lfoot -5.83048 -10.27
ltoes -6.08933
335
root 6.90736 17.999 13.6449 41.6766 -95.9685 -42.779
lowerback 11.4243 0.0451975 -3.07736
upperback 0.696889 -0.386267 -0.15959
thorax -5.66354 -0.13106 1.63247
lowerneck -21.1092 -4.91464 -11.6011
upperneck 27.5194 -5.88614 8.04016
head 13.4044 -2.8726 4.0574
rclavicle -1.98785e-016 8.74653e-015
rhumerus -43.3466 -20.246 -68.3176
rradius 28.4263
rwrist 4.69708
rhand -16.4402 7.69996
rfingers 7.12502
rthumb 9.77542 -22.0532
lclavicle -1.98785e-016 8.74653e-015
lhumerus -29.6563 7.79079 77.2011
lradius 37.0663
lwrist -4.30475
lhand -18.3724 26.0566
lfingers 7.12502
lthumb 7.91096 55.8886
rfemur -7.05255 4.45822 15.6884
rtibia 60.5771
rfoot 17.3801 22.1222
rtoes 8.76407
lfemur -3.28598 1.56493 -24.2951
ltibia 11.4939
lfoot -6.09283 -10.4547
ltoes -6.37768
336
root 6.79502 18.0013 13.6642 40.261 -96.0143 -41.4871
lowerback 11.4163 -0.0756997 -3.11857
upperback 0.771925 -0.548297 -0.0980318
thorax -5.57073 -0.211902 1.74587
lowerneck -21.1894 -4.83849 -11.5481
upperneck 27.4057 -5.70554 7.8497
head 13.3426 -2.80703 4.00107
rclavicle 1.54058e-015 -3.97569e-015
rhumerus -43.5009 -20.3587 -68.3417
rradius 28.6447
rwrist 5.14504
rhand -16.0916 7.5963
rfingers 7.12502
rthumb 10.1118 -22.1407
lclavicle 1.54058e-015 -3.97569e-015
lhumerus -29.532 7.63915 77.4461
lradius 37.0333
lwrist -4.19829
lhand -18.1734 26.5328
lfingers 7.12502
lthumb 8.10295 56.3575
rfemur -8.14764 3.8862 15.6514
rtibia 62.0766
rfoot 14.9292 21.3846
rtoes 7.94374
lfemur -2.4474 1.79478 -24.2969
ltibia 10.9411
lfoot -6.30709 -10.4251
ltoes -6.9619
337
root 6.68184 18.0128 13.6831 39.108 -96.1082 -40.4045
lowerback 11.3194 -0.215288 -3.18383
upperback 0.866502 -0.736296 -0.0621043
thorax -5.40569 -0.307035 1.84839
lowerneck -21.3206 -4.75949 -11.5635
upperneck 27.3116 -5.53618 7.79591
head 13.3086 -2.73504 4.01008
rclavicle -1.15295e-014 -2.78299e-015
rhumerus -43.4485 -20.1759 -68.6141
rradius 28.795
rwrist 5.24804
rhand -15.7343 7.39187
rfingers 7.12502
rthumb 10.4565 -22.3281
lclavicle -1.15295e-014 -2.78299e-015
lhumerus -29.3079 7.94058 77.5681
lradius 36.8477
lwrist -4.48197
lhand -18.0941 26.6053
lfingers 7.12502
lthumb 8.17954 56.4269
rfemur -9.36915 3.41373 15.5767
rtibia 63.4724
rfoot 12.6033 20.6848
rtoes 8.45078
lfemur -1.5205 2.03393 -24.3475
ltibia 10.0981
lfoot -6.45388 -10.4518
ltoes -8.02752
338
root 6.57096 18.0208 13.703 39.4993 -96.3064 -40.8718
lowerback 11.2855 -0.289026 -3.41442
upperback 0.920971 -0.864866 -0.100021
thorax -5.31977 -0.368358 1.95785
lowerneck -21.3866 -4.71787 -11.4491
upperneck 27.2526 -5.45706 7.65957
head 13.2795 -2.70272 3.94817
rclavicle 2.60905e-014 1.07344e-014
rhumerus -43.4306 -19.7753 -69.0332
rradius 28.9316
rwrist 4.72494
rhand -15.9291 7.30972
rfingers 7.12502
rthumb 10.2685 -22.4196
lclavicle 2.60905e-014 1.07344e-014
lhumerus -29.113 8.26138 77.683
lradius 36.6511
lwrist -4.74282
lhand -18.0633 26.3882
lfingers 7.12502
lthumb 8.2092 56.2087
rfemur -10.5625 3.06382 15.2988
rtibia 64.7428
rfoot 10.1332 20.4896
rtoes 5.87986
lfemur -0.432318 2.29639 -24.5982
ltibia 8.88024
lfoot -6.3186 -10.6158
ltoes -9.03342
